<svg
                width="13"
                height="22"
                viewBox="0 0 13 22"
                xmlns="http://www.w3.org/2000/svg"
                
                fill="white"
              >
                <path
                  clipRule="evenodd"
                  d="M3.00707 0.368336C3.60457 0.125198 4.24567 0
                    4.89322 0C5.54076 0 6.18186 0.125198 6.77936 0.368336C7.37686 0.611474 7.91886 0.967715 8.37396
                    1.41641C8.82906 1.8651 9.18819 2.39733 9.43054 2.98222C9.67219 3.56542 9.79294 4.18942 9.78584
                    4.81826L9.77827 15.5256L9.77816 15.5325C9.7646 16.3682 9.41428 17.1651 8.80278 17.7514C8.19129
                    18.3377 7.36765 18.6663 6.50962 18.6663C5.65158 18.6663 4.82795 18.3377 4.21645 17.7514C3.60496
                    17.1651 3.25463 16.3682 3.24108 15.5325L3.24097 15.5253V7.35068C3.24097 6.84896 3.65853 6.44223
                    4.17362 6.44223C4.68871 6.44223 5.10627 6.84896 5.10627 7.35068V15.5101C5.11373 15.8666 5.26393
                    16.2063 5.52496 16.4566C5.78753 16.7083 6.14119 16.8494 6.50962 16.8494C6.87805 16.8494 7.23171
                    16.7083 7.49427 16.4566C7.75537 16.2062 7.90558 15.8664 7.91297 15.5098L7.92055 4.80689L7.92061
                    4.80169C7.92547 4.41144 7.85076 4.02413 7.7008 3.66221C7.55084 3.30029 7.32862 2.97096 7.04702 2.69332C6.76541 2.41568 6.43003 2.19525 6.06032 2.0448C5.6906 1.89435 5.2939 1.81689 4.89322
                    1.81689C4.49253 1.81689 4.09583 1.89435 3.72612 2.0448C3.3564 2.19525 3.02102 2.41568 2.73942
                    2.69332C2.45782 2.97097 2.23559 3.30029 2.08563 3.66221C1.93567 4.02413 1.86096 4.41144 1.86582
                    4.80169L1.86589 4.80721V15.5968L1.86579 15.6034C1.8569 16.2017 1.9702 16.7957 2.1991 17.3509C2.428
                    17.9062 2.76794 18.4116 3.19915 18.8377C3.63036 19.2638 4.14423 19.6022 4.7109 19.8332C5.27757
                    20.0642 5.88572 20.1831 6.5 20.1831C7.11428 20.1831 7.72243 20.0642 8.2891 19.8332C8.85577 19.6022
                    9.36964 19.2638 9.80085 18.8377C10.2321 18.4116 10.572 17.9062 10.8009 17.3509C11.0298 16.7957
                    11.1431 16.2017 11.1342 15.6034L11.1341 15.5968V5.51903C11.1341 5.01731 11.5517 4.61059 12.0668
                    4.61059C12.5819 4.61059 12.9994 5.01731 12.9994 5.51903V15.5839C13.0109 16.4207 12.852 17.2514
                    12.5319 18.028C12.2108 18.8067 11.7341 19.5155 11.1293 20.1131C10.5246 20.7107 9.80388 21.1853 9.00915
                    21.5093C8.21442 21.8332 7.36151 22 6.5 22C5.63849 22 4.78558 21.8332 3.99085 21.5093C3.19612 21.1853
                    2.47543 20.7107 1.87067 20.1131C1.26592 19.5155 0.789167 18.8067 0.46814 18.028C0.147983 17.2514 -0.0109229
                    16.4207 0.000582999 15.5839V4.81794C-0.00646314 4.18921 0.114285 3.56532 0.355893 2.98222C0.598243 2.39732
                    0.957375 1.8651 1.41247 1.41641C1.86757 0.967715 2.40958 0.611474 3.00707 0.368336Z"
                />
              </svg>