<svg width="43" height="29" viewBox="0 0 43 29" fill="none" xmlns="http://www.w3.org/2000/svg">
<path fill-rule="evenodd" clip-rule="evenodd" d="M19.0156 0.026848C18.9248 0.0497267 18.3403 0.128853 17.7168 0.202735C17.0932 0.276616 16.5976 0.377171 16.6155 0.426053C16.6333 0.475047 17.3524 1.09891 18.2135 1.81239C19.0745 2.52598 19.8084 3.15799 19.8443 3.21681C19.8848 3.2831 19.3716 3.32417 18.499 3.32462C16.9139 3.3254 15.3821 3.52807 13.8602 3.93855C12.8006 4.22437 10.756 4.99599 10.756 5.11016C10.756 5.14554 11.8204 5.72487 13.1213 6.39762C14.4224 7.07025 15.4879 7.64803 15.4891 7.68151C15.4904 7.71499 15.0826 7.75516 14.583 7.77068C10.6219 7.89355 6.2402 9.44718 2.94726 11.8962C2.35565 12.3362 2.17416 12.5267 2.28649 12.5894C2.37162 12.6369 4.26186 13.2425 6.487 13.935C8.71214 14.6276 10.5154 15.2117 10.4942 15.2332C10.4731 15.2547 9.95296 15.3957 9.33855 15.5463C7.08081 16.1004 4.52221 17.2599 2.55146 18.6221C1.35459 19.4493 -0.0780689 20.6177 0.00331581 20.7001C0.0311782 20.7283 1.75579 20.8606 3.83567 20.994L7.61736 21.2366L5.9727 22.6315L4.32805 24.0264L6.49956 24.0566L8.67095 24.087L10.1951 22.4942C11.0334 21.6182 11.9984 20.6758 12.3395 20.3999C13.0838 19.7982 13.2611 19.8815 10.3155 19.4493C9.13437 19.2761 8.14685 19.1171 8.12097 19.096C8.00842 19.0043 8.7998 18.3146 9.77334 17.656C11.3669 16.5776 13.225 15.7461 15.5866 15.0544C15.7964 14.9929 15.2096 14.6778 12.558 13.4282C10.7492 12.5758 9.22314 11.8378 9.16675 11.7884C8.9313 11.5818 12.1309 10.3733 14.4187 9.80465C16.3124 9.33391 17.7242 9.12086 19.5212 9.03448L21.0731 8.95992L18.947 7.50908C17.7777 6.71111 16.8191 6.02408 16.817 5.98245C16.8115 5.8771 17.7652 5.69217 19.0707 5.54542C20.4494 5.39051 22.2581 5.49363 23.8475 5.81784C24.5203 5.95511 25.0253 6.01348 24.9877 5.94964C24.9504 5.88659 24.4813 5.28906 23.9451 4.62179C23.4089 3.95451 22.9936 3.38488 23.0221 3.35598C23.1041 3.27283 24.2845 3.6486 25.0586 4.00428C26.5742 4.70069 28.4871 6.24383 29.5617 7.63698L29.9186 8.09969L29.0128 8.18093C27.9537 8.27591 26.3822 8.58929 25.8713 8.80725L25.5137 8.95992L26.2834 9.40634C26.7066 9.65187 27.0534 9.88646 27.054 9.92764C27.0545 9.96871 26.8939 10.0378 26.6971 10.081C25.6434 10.3122 20.8402 12.2024 20.3455 12.5807C20.0982 12.7697 20.1095 12.7774 21.3707 13.2654C22.0722 13.5368 22.647 13.7845 22.648 13.8159C22.649 13.8473 22.1013 14.1199 21.4308 14.4218C19.6865 15.2073 16.8131 16.9877 16.8131 17.283C16.8131 17.3238 17.2962 17.4205 17.8868 17.4978C18.4774 17.575 19.0231 17.6718 19.0995 17.7126C19.1863 17.7591 18.6708 18.203 17.7279 18.8939C14.8366 21.0123 12.395 23.0695 10.5566 24.9365C8.76941 26.7514 8.75784 26.7607 8.26744 26.7607H7.77462L7.80612 27.8488L7.83761 28.9369L9.38976 28.9679L10.942 28.9987L11.1355 28.2744C11.9617 25.1813 15.4194 23.604 18.3486 24.9839C19.7426 25.6407 20.5804 26.6121 21.0508 28.1168L21.3072 28.9369L22.4599 28.9685L23.6127 29L24.1513 27.5177L24.6901 26.0353L25.6798 25.9517C26.2242 25.9056 26.6993 25.8805 26.7356 25.8959C26.772 25.9112 26.6122 26.6016 26.3807 27.4303C26.1492 28.259 25.9583 28.9496 25.9567 28.9648C25.955 28.9801 26.5409 28.9927 27.2586 28.9927H28.5636L31.2546 21.9896L33.9456 14.9865L35.4996 14.1495C36.3543 13.6891 37.3933 13.0865 37.8084 12.8102L38.5634 12.308L37.3795 12.2763C36.7283 12.2589 36.1956 12.203 36.1956 12.152C36.1956 11.9356 38.2368 11.3656 39.0275 11.3613C39.3258 11.3597 39.4706 11.2506 39.9515 10.6651C40.2651 10.2832 40.7336 9.52955 40.9926 8.99028C41.2516 8.4509 41.5896 7.85784 41.7438 7.67224C42.0182 7.34156 42.3016 6.57284 42.1904 6.46023C42.1141 6.38289 42.0637 6.38144 38.6184 6.357L35.5899 6.33546L34.9842 5.54274C33.8789 4.09602 32.0215 2.50936 30.167 1.42736C29.3463 0.948469 27.28 0.0453741 27.1973 0.1293C27.1716 0.155304 27.3033 0.48286 27.4899 0.857401C27.6764 1.23183 27.7901 1.53829 27.7424 1.53829C27.6947 1.53829 27.2715 1.38841 26.8019 1.20516C25.8311 0.826375 24.5424 0.476498 23.2556 0.242354C22.426 0.0914664 19.3752 -0.0636624 19.0156 0.026848ZM33.2497 6.98633C35.0655 7.7824 35.464 8.01129 35.0341 8.01129C34.911 8.01129 34.9619 8.13506 35.2177 8.45771C35.4124 8.70312 35.5467 8.92934 35.5162 8.96015C35.4857 8.99106 34.4988 8.67589 33.3228 8.25972C31.2078 7.51131 31.1851 7.49982 31.2171 7.19536C31.2434 6.94503 31.1356 6.78221 30.6389 6.32218C30.3031 6.01125 30.0284 5.71226 30.0284 5.6578C30.0284 5.60334 30.3133 5.68715 30.6617 5.84407C31.01 6.00087 32.1746 6.51491 33.2497 6.98633ZM14.9697 25.9825C13.9169 26.5156 13.0305 27.6373 12.9414 28.5492L12.9035 28.9369L14.2526 28.9683L15.6017 28.9997V28.2267C15.6017 27.5694 15.7992 26.6393 16.1174 25.799C16.2175 25.5347 15.686 25.6198 14.9697 25.9825Z" fill="#FCFFFC"/>
</svg>
