<svg width="24" height="24" viewBox="0 0 24 24" fill="none" xmlns="http://www.w3.org/2000/svg">
<path d="M13.3335 7.85976C11.7941 8.33249 10.4265 9.24491 9.399 10.4848C8.6279 10.4117 7.89833 10.1018 7.31052 9.59737C6.72272 9.09299 6.30551 8.41896 6.11622 7.6679C5.92694 6.91684 5.97486 6.12559 6.25341 5.40287C6.53195 4.68014 7.02746 4.0614 7.67184 3.63164C8.31623 3.20189 9.07788 2.98221 9.85215 3.00279C10.6264 3.02337 11.3753 3.28319 11.996 3.74657C12.6166 4.20995 13.0786 4.85414 13.3183 5.59064C13.5581 6.32714 13.5639 7.11982 13.335 7.85976H13.3335ZM5.25 11.9998H8.4C7.824 13.1248 7.5 14.3998 7.5 15.7498C7.4973 17.6361 8.14344 19.4659 9.33 20.9323C5.331 20.4598 3 17.5948 3 14.9998V14.6248C3 13.4323 4.008 11.9998 5.25 11.9998ZM22.5 15.7498C22.5 16.6362 22.3254 17.5139 21.9862 18.3329C21.647 19.1518 21.1498 19.8959 20.523 20.5227C19.8962 21.1495 19.1521 21.6467 18.3331 21.986C17.5142 22.3252 16.6364 22.4998 15.75 22.4998C14.8636 22.4998 13.9858 22.3252 13.1669 21.986C12.3479 21.6467 11.6038 21.1495 10.977 20.5227C10.3502 19.8959 9.85303 19.1518 9.51381 18.3329C9.17459 17.5139 9 16.6362 9 15.7498C9 13.9596 9.71116 12.2427 10.977 10.9768C12.2429 9.71092 13.9598 8.99976 15.75 8.99976C17.5402 8.99976 19.2571 9.71092 20.523 10.9768C21.7888 12.2427 22.5 13.9596 22.5 15.7498ZM19.281 12.9688C19.2113 12.8989 19.1286 12.8435 19.0374 12.8057C18.9463 12.7679 18.8487 12.7484 18.75 12.7484C18.6513 12.7484 18.5537 12.7679 18.4626 12.8057C18.3714 12.8435 18.2887 12.8989 18.219 12.9688L14.25 16.9393L13.281 15.9688C13.2113 15.899 13.1285 15.8437 13.0374 15.806C12.9463 15.7682 12.8486 15.7488 12.75 15.7488C12.6514 15.7488 12.5537 15.7682 12.4626 15.806C12.3715 15.8437 12.2887 15.899 12.219 15.9688C12.1493 16.0385 12.094 16.1213 12.0562 16.2124C12.0185 16.3035 11.9991 16.4011 11.9991 16.4998C11.9991 16.5984 12.0185 16.696 12.0562 16.7871C12.094 16.8783 12.1493 16.961 12.219 17.0308L13.719 18.5308C13.7887 18.6006 13.8714 18.656 13.9626 18.6938C14.0537 18.7316 14.1513 18.7511 14.25 18.7511C14.3487 18.7511 14.4463 18.7316 14.5374 18.6938C14.6286 18.656 14.7113 18.6006 14.781 18.5308L19.281 14.0308C19.3508 13.9611 19.4063 13.8783 19.4441 13.7872C19.4819 13.6961 19.5013 13.5984 19.5013 13.4998C19.5013 13.4011 19.4819 13.3034 19.4441 13.2123C19.4063 13.1212 19.3508 13.0384 19.281 12.9688Z" fill="black"/>
</svg>
