<svg width="24" height="24" viewBox="0 0 24 24" fill="none" xmlns="http://www.w3.org/2000/svg">
<path d="M12.0009 17.25C11.8703 17.2499 11.742 17.2159 11.6287 17.1511L5.06337 13.3987C5.00632 13.3658 4.9416 13.3484 4.87573 13.3485C4.80985 13.3485 4.74515 13.3659 4.68813 13.3988C4.6311 13.4318 4.58377 13.4792 4.5509 13.5363C4.51803 13.5934 4.50077 13.6581 4.50087 13.724V17.25C4.50075 17.3838 4.53647 17.5153 4.60431 17.6307C4.67215 17.7461 4.76963 17.8412 4.88665 17.9062L11.6366 21.6562C11.7481 21.7181 11.8734 21.7506 12.0009 21.7506C12.1283 21.7506 12.2537 21.7181 12.3651 21.6562L19.1151 17.9062C19.2321 17.8412 19.3296 17.7461 19.3974 17.6307C19.4653 17.5153 19.501 17.3838 19.5009 17.25V13.724C19.501 13.6581 19.4837 13.5934 19.4508 13.5363C19.418 13.4792 19.3706 13.4318 19.3136 13.3988C19.2566 13.3659 19.1919 13.3485 19.126 13.3485C19.0601 13.3484 18.9954 13.3658 18.9384 13.3987L12.3731 17.1511C12.2597 17.2159 12.1314 17.2499 12.0009 17.25Z" fill="white"/>
<path d="M23.2471 8.92965C23.2471 8.92965 23.2471 8.9259 23.2471 8.92449C23.235 8.80561 23.1946 8.69134 23.1294 8.59122C23.0642 8.49109 22.976 8.408 22.8721 8.34887L12.3721 2.34887C12.2588 2.28408 12.1305 2.25 11.9999 2.25C11.8694 2.25 11.7411 2.28408 11.6277 2.34887L1.12774 8.34887C1.01298 8.41448 0.917608 8.50925 0.851273 8.62359C0.784937 8.73793 0.75 8.86777 0.75 8.99996C0.75 9.13215 0.784937 9.26199 0.851273 9.37633C0.917608 9.49067 1.01298 9.58544 1.12774 9.65105L11.6277 15.6511C11.7411 15.7158 11.8694 15.7499 11.9999 15.7499C12.1305 15.7499 12.2588 15.7158 12.3721 15.6511L21.6102 10.3725C21.6245 10.3642 21.6407 10.3599 21.6572 10.3599C21.6737 10.3599 21.6899 10.3643 21.7042 10.3726C21.7184 10.3808 21.7302 10.3927 21.7384 10.407C21.7466 10.4213 21.7509 10.4375 21.7509 10.454V17.2289C21.7509 17.6325 22.0612 17.9789 22.4648 17.999C22.5662 18.0039 22.6675 17.9882 22.7627 17.9527C22.8578 17.9173 22.9448 17.8629 23.0183 17.7929C23.0918 17.7228 23.1503 17.6386 23.1903 17.5453C23.2302 17.452 23.2509 17.3515 23.2509 17.25V8.99996C23.2508 8.97647 23.2496 8.95301 23.2471 8.92965Z" fill="white"/>
</svg>
