<svg width="240" height="1024" viewBox="0 0 240 1024" fill="none" xmlns="http://www.w3.org/2000/svg" class="absolute">
<path d="M1.81191 -117.756C1.40582 -118.97 1.44012 -120.002 1.9148 -120.853C2.40466 -121.709 3.29445 -122.352 4.58419 -122.784L5.4946 -123.088L6.28648 -120.721L5.19399 -120.356C4.1622 -120.01 3.79097 -119.405 4.08031 -118.54C4.22245 -118.116 4.45043 -117.838 4.76427 -117.706C5.09836 -117.565 5.54612 -117.588 6.10753 -117.776C6.77516 -117.999 7.30858 -118.347 7.70778 -118.818C8.12215 -119.294 8.54886 -120.061 8.9879 -121.119C9.55313 -122.455 10.1314 -123.45 10.7226 -124.103C11.3291 -124.762 12.0951 -125.246 13.0207 -125.555C14.2801 -125.977 15.3578 -125.983 16.2538 -125.574C17.1649 -125.17 17.8236 -124.361 18.2297 -123.147C18.6307 -121.949 18.5837 -120.929 18.0888 -120.089C17.6141 -119.238 16.7319 -118.597 15.4422 -118.166L14.7821 -117.945L13.9902 -120.312L14.8096 -120.586C15.3558 -120.769 15.7148 -121.007 15.8865 -121.301C16.0734 -121.599 16.0983 -121.954 15.9613 -122.363C15.6821 -123.198 15.0342 -123.445 14.0176 -123.105C13.441 -122.912 12.9531 -122.58 12.5539 -122.109C12.1597 -121.623 11.7432 -120.851 11.3041 -119.793C10.744 -118.441 10.1581 -117.444 9.54662 -116.801C8.93511 -116.158 8.12862 -115.668 7.12718 -115.333C5.82226 -114.897 4.71168 -114.888 3.79543 -115.307C2.88425 -115.711 2.22308 -116.527 1.81191 -117.756ZM20.9848 -114.155L21.8224 -111.652L5.89031 -106.322L5.05274 -108.825L20.9848 -114.155ZM8.74684 -97.0267C8.34075 -98.2405 8.37251 -99.2803 8.84211 -100.146C9.32689 -101.017 10.2142 -101.668 11.5039 -102.099L19.8796 -104.901C21.1694 -105.333 22.2622 -105.344 23.1582 -104.935C24.0694 -104.532 24.728 -103.723 25.1341 -102.509C25.5402 -101.295 25.5009 -100.253 25.0161 -99.3819C24.5465 -98.5162 23.6668 -97.8676 22.3771 -97.4361L21.0115 -96.9793L20.2196 -99.3463L21.7445 -99.8565C22.7915 -100.207 23.1703 -100.814 22.881 -101.679C22.5916 -102.544 21.9235 -102.801 20.8765 -102.451L12.1594 -99.5349C11.1276 -99.1897 10.7564 -98.5847 11.0457 -97.7198C11.335 -96.8549 11.9956 -96.5951 13.0274 -96.9403L16.1455 -97.9834L15.7268 -99.2352L18.0028 -99.9966L19.2134 -96.3778L14.0014 -94.6341C12.7116 -94.2026 11.6112 -94.1888 10.7 -94.5926C9.80398 -95.0014 9.15293 -95.8128 8.74684 -97.0267ZM12.8912 -84.6385C12.4851 -85.8524 12.5194 -86.8846 12.9941 -87.7351C13.4839 -88.5908 14.3737 -89.2343 15.6635 -89.6658L16.5739 -89.9703L17.3658 -87.6033L16.2733 -87.2378C15.2415 -86.8926 14.8703 -86.2876 15.1596 -85.4227C15.3017 -84.9978 15.5297 -84.7198 15.8436 -84.5886C16.1776 -84.4473 16.6254 -84.4706 17.1868 -84.6584C17.8544 -84.8817 18.3879 -85.2289 18.7871 -85.6999C19.2014 -86.1759 19.6281 -86.9429 20.0672 -88.0009C20.6324 -89.3372 21.2107 -90.3321 21.8019 -90.9854C22.4084 -91.6438 23.1744 -92.1279 24.1 -92.4375C25.3594 -92.8588 26.437 -92.8651 27.3331 -92.4562C28.2442 -92.0524 28.9029 -91.2436 29.309 -90.0297C29.71 -88.831 29.663 -87.8115 29.1681 -86.971C28.6934 -86.1205 27.8112 -85.4795 26.5214 -85.048L25.8614 -84.8272L25.0695 -87.1942L25.8889 -87.4683C26.4351 -87.6511 26.7941 -87.8893 26.9658 -88.1829C27.1527 -88.4817 27.1776 -88.8359 27.0406 -89.2455C26.7614 -90.0801 26.1135 -90.3273 25.0968 -89.9872C24.5203 -89.7943 24.0324 -89.4624 23.6332 -88.9914C23.239 -88.5052 22.8225 -87.7332 22.3834 -86.6752C21.8233 -85.3237 21.2374 -84.3263 20.6259 -83.6831C20.0144 -83.0398 19.2079 -82.5507 18.2065 -82.2157C16.9015 -81.7791 15.791 -81.7703 14.8747 -82.1893C13.9635 -82.5931 13.3024 -83.4095 12.8912 -84.6385ZM32.0641 -81.0376L33.2976 -77.3505C33.7139 -76.1062 33.6922 -75.0614 33.2327 -74.2159C32.7732 -73.3705 31.8986 -72.732 30.6089 -72.3005L29.0384 -71.7751C27.7487 -71.3437 26.6659 -71.3273 25.7902 -71.7261C24.9144 -72.1248 24.2684 -72.9463 23.8522 -74.1906L23.4562 -75.3741L16.9696 -73.204L16.132 -75.7076L32.0641 -81.0376ZM26.1282 -74.952C26.2652 -74.5423 26.4806 -74.2769 26.7742 -74.1558C27.0728 -74.0195 27.4953 -74.0427 28.0415 -74.2255L29.9306 -74.8574C30.4769 -75.0402 30.8282 -75.2758 30.9848 -75.5644C31.1464 -75.8378 31.1587 -76.1793 31.0216 -76.589L30.6257 -77.7726L25.7322 -76.1355L26.1282 -74.952ZM21.3213 -59.4397C20.9101 -60.6688 20.9444 -61.7263 21.4241 -62.6122C21.9038 -63.4982 22.7809 -64.1544 24.0555 -64.5808L32.4312 -67.3828C33.7058 -67.8092 34.8012 -67.8129 35.7174 -67.394C36.6337 -66.975 37.2974 -66.151 37.7085 -64.922C38.1197 -63.6929 38.0854 -62.6354 37.6057 -61.7495C37.126 -60.8635 36.2489 -60.2073 34.9743 -59.7809L26.5986 -56.9789C25.324 -56.5525 24.2286 -56.5488 23.3124 -56.9677C22.3961 -57.3867 21.7324 -58.2107 21.3213 -59.4397ZM23.5973 -60.2012C23.8866 -59.3363 24.5548 -59.079 25.6017 -59.4292L34.2961 -62.3378C35.3431 -62.6881 35.7219 -63.2957 35.4325 -64.1606C35.1432 -65.0254 34.475 -65.2828 33.4281 -64.9325L24.7337 -62.0239C23.6867 -61.6736 23.3079 -61.066 23.5973 -60.2012ZM40.588 -55.5584L41.8291 -51.8485C42.2606 -50.5588 42.2718 -49.5165 41.8629 -48.7217C41.4691 -47.9319 40.6501 -47.3289 39.4058 -46.9127L38.4272 -46.5853C36.7732 -46.032 35.5435 -46.228 34.738 -47.1733L34.6925 -47.158C34.7135 -46.4902 34.4839 -45.941 34.0037 -45.5104C33.5285 -45.0646 32.8206 -44.6844 31.8798 -44.3696L29.0804 -43.4331C28.6251 -43.2808 28.2585 -43.1413 27.9803 -43.0145C27.7174 -42.8928 27.4696 -42.7255 27.2371 -42.5128L26.3843 -45.0619C26.6118 -45.2392 26.8343 -45.3811 27.0517 -45.4876C27.2692 -45.5941 27.6738 -45.7463 28.2655 -45.9443L31.1788 -46.9189C31.9072 -47.1626 32.3749 -47.454 32.5819 -47.7933C32.7941 -48.1173 32.8037 -48.5676 32.6108 -49.1442L32.3215 -50.0091L25.4935 -47.7248L24.6559 -50.2284L40.588 -55.5584ZM34.9021 -49.8601C35.0696 -49.3594 35.3229 -49.0308 35.6621 -48.8743C36.0063 -48.7027 36.4819 -48.7183 37.0889 -48.9214L38.3179 -49.3326C38.8945 -49.5255 39.2762 -49.7713 39.4631 -50.07C39.6551 -50.3535 39.6775 -50.7153 39.5302 -51.1554L39.1495 -52.2934L34.5975 -50.7705L34.9021 -49.8601ZM43.2919 -39.9111L42.4163 -42.5285L44.6923 -43.2899L47.2811 -35.5515L45.0051 -34.79L44.1295 -37.4075L30.4734 -32.8389L29.6358 -35.3425L43.2919 -39.9111ZM33.8848 -21.8852C33.4787 -23.099 33.513 -24.1312 33.9877 -24.9818C34.4776 -25.8374 35.3674 -26.4809 36.6571 -26.9124L37.5675 -27.217L38.3594 -24.8499L37.2669 -24.4844C36.2351 -24.1393 35.8639 -23.5342 36.1532 -22.6693C36.2954 -22.2445 36.5234 -21.9665 36.8372 -21.8352C37.1713 -21.6939 37.619 -21.7172 38.1805 -21.905C38.8481 -22.1284 39.3815 -22.4755 39.7807 -22.9465C40.1951 -23.4226 40.6218 -24.1896 41.0608 -25.2475C41.626 -26.5839 42.2043 -27.5787 42.7956 -28.2321C43.402 -28.8905 44.168 -29.3745 45.0936 -29.6842C46.353 -30.1055 47.4307 -30.1117 48.3267 -29.7028C49.2379 -29.2991 49.8965 -28.4902 50.3026 -27.2764C50.7036 -26.0777 50.6566 -25.0581 50.1617 -24.2177C49.687 -23.3671 48.8048 -22.7261 47.5151 -22.2946L46.855 -22.0738L46.0632 -24.4409L46.8825 -24.715C47.4288 -24.8977 47.7877 -25.1359 47.9594 -25.4296C48.1463 -25.7283 48.1712 -26.0825 48.0342 -26.4922C47.755 -27.3267 47.1071 -27.5739 46.0905 -27.2338C45.5139 -27.0409 45.026 -26.709 44.6268 -26.238C44.2327 -25.7519 43.8161 -24.9798 43.377 -23.9219C42.8169 -22.5703 42.2311 -21.573 41.6195 -20.9297C41.008 -20.2865 40.2015 -19.7973 39.2001 -19.4623C37.8952 -19.0258 36.7846 -19.017 35.8683 -19.4359C34.9572 -19.8397 34.296 -20.6561 33.8848 -21.8852ZM48.5964 -8.9256L50.2715 -3.91837L47.9955 -3.15695L46.3204 -8.16418L48.5964 -8.9256ZM61.3561 6.52075L62.1936 9.02436L46.2615 14.3543L45.424 11.8507L61.3561 6.52075ZM64.0899 14.6928L66.3057 21.316L64.0297 22.0774L62.6515 17.9578L58.2133 19.4426L59.2945 22.6745L57.0185 23.4359L55.9373 20.204L48.9954 22.5263L48.1579 20.0227L64.0899 14.6928ZM67.9764 26.3099L69.2175 30.0198C69.649 31.3096 69.6602 32.3518 69.2512 33.1466C68.8575 33.9364 68.0384 34.5394 66.7942 34.9556L65.8155 35.283C64.1616 35.8363 62.9319 35.6403 62.1264 34.6951L62.0809 34.7103C62.1019 35.3781 61.8722 35.9274 61.392 36.3579C60.9169 36.8037 60.209 37.184 59.2682 37.4987L56.4687 38.4352C56.0135 38.5875 55.6469 38.727 55.3687 38.8538C55.1058 38.9756 54.858 39.1428 54.6255 39.3556L53.7727 36.8064C54.0002 36.6291 54.2227 36.4872 54.4401 36.3807C54.6576 36.2742 55.0622 36.122 55.6539 35.924L58.5672 34.9494C59.2956 34.7057 59.7633 34.4143 59.9703 34.0751C60.1825 33.751 60.1921 33.3007 59.9992 32.7241L59.7099 31.8592L52.8818 34.1435L52.0443 31.6399L67.9764 26.3099ZM62.2905 32.0082C62.458 32.5089 62.7113 32.8375 63.0505 32.994C63.3947 33.1657 63.8703 33.15 64.4773 32.9469L65.7063 32.5357C66.2829 32.3429 66.6646 32.097 66.8515 31.7983C67.0435 31.5148 67.0658 31.153 66.9186 30.713L66.5379 29.575L61.9859 31.0978L62.2905 32.0082ZM72.3164 39.2829L73.3671 42.4238L64.6454 48.0495L64.6606 48.095L74.1971 44.9046L74.9433 47.1351L59.0112 52.4651L58.1508 49.8932L68.7761 42.998L68.7609 42.9525L57.1305 46.8433L56.3843 44.6128L72.3164 39.2829ZM64.3439 69.1618C63.9428 67.9631 63.9771 66.9309 64.4467 66.0651C64.9214 65.2146 65.7809 64.5812 67.0251 64.165L75.5829 61.302C76.8271 60.8858 77.8947 60.8745 78.7856 61.2682C79.6816 61.677 80.3301 62.4808 80.7311 63.6795C81.1322 64.8782 81.0953 65.9028 80.6206 66.7534C80.151 67.6191 79.2941 68.2601 78.0499 68.6763L76.3657 69.2398L75.5738 66.8727L77.4174 66.256C78.4036 65.926 78.7572 65.3438 78.478 64.5092C78.1988 63.6747 77.5661 63.4224 76.5798 63.7523L67.6806 66.7295C66.7095 67.0544 66.3635 67.6341 66.6427 68.4686C66.9219 69.3032 67.547 69.558 68.5181 69.2331L70.9535 68.4184L71.7454 70.7854L69.4921 71.5393C68.2479 71.9555 67.1778 71.9592 66.2818 71.5503C65.3908 71.1567 64.7449 70.3605 64.3439 69.1618ZM83.5072 72.7341L84.558 75.875L75.8362 81.5007L75.8514 81.5462L85.3879 78.3558L86.1341 80.5863L70.202 85.9163L69.3416 83.3444L79.967 76.4492L79.9517 76.4036L68.3213 80.2945L67.5751 78.064L83.5072 72.7341ZM88.6729 88.1751L89.8074 91.5664L74.7433 99.491L73.9058 96.9873L76.9171 95.4738L76.8716 95.489L75.9198 92.644L72.6494 93.2319L71.8728 90.9104L88.6729 88.1751ZM78.9348 94.4698L86.4367 90.72L86.4215 90.6745L78.181 92.2165L78.9348 94.4698ZM90.3801 100.843L89.5045 98.2257L91.7805 97.4643L94.3693 105.203L92.0933 105.964L91.2177 103.347L77.5616 107.915L76.724 105.412L90.3801 100.843ZM91.5825 119.567L93.2577 124.574L90.9816 125.336L89.3065 120.328L91.5825 119.567ZM89.2713 143.674C88.8653 142.46 88.8995 141.428 89.3742 140.577C89.8641 139.722 90.7539 139.078 92.0436 138.647L92.954 138.342L93.7459 140.709L92.6534 141.075C91.6216 141.42 91.2504 142.025 91.5397 142.89C91.6819 143.315 91.9099 143.593 92.2237 143.724C92.5578 143.865 93.0055 143.842 93.567 143.654C94.2346 143.431 94.768 143.084 95.1672 142.613C95.5816 142.137 96.0083 141.37 96.4473 140.312C97.0126 138.975 97.5908 137.98 98.1821 137.327C98.7885 136.669 99.5545 136.185 100.48 135.875C101.739 135.454 102.817 135.448 103.713 135.856C104.624 136.26 105.283 137.069 105.689 138.283C106.09 139.482 106.043 140.501 105.548 141.342C105.074 142.192 104.191 142.833 102.902 143.265L102.242 143.485L101.45 141.118L102.269 140.844C102.815 140.661 103.174 140.423 103.346 140.13C103.533 139.831 103.558 139.477 103.421 139.067C103.142 138.232 102.494 137.985 101.477 138.325C100.9 138.518 100.412 138.85 100.013 139.321C99.6192 139.807 99.2026 140.579 98.7636 141.637C98.2034 142.989 97.6176 143.986 97.0061 144.629C96.3945 145.273 95.5881 145.762 94.5866 146.097C93.2817 146.533 92.1711 146.542 91.2549 146.123C90.3437 145.72 89.6825 144.903 89.2713 143.674ZM108.444 147.275L109.282 149.779L93.3497 155.109L92.5122 152.605L108.444 147.275ZM96.2063 164.404C95.8002 163.19 95.8319 162.15 96.3015 161.284C96.7863 160.414 97.6736 159.762 98.9633 159.331L107.339 156.529C108.629 156.097 109.722 156.086 110.618 156.495C111.529 156.899 112.187 157.708 112.594 158.921C113 160.135 112.96 161.178 112.476 162.048C112.006 162.914 111.126 163.563 109.837 163.994L108.471 164.451L107.679 162.084L109.204 161.574C110.251 161.224 110.63 160.616 110.34 159.751C110.051 158.886 109.383 158.629 108.336 158.979L99.6188 161.895C98.587 162.241 98.2158 162.846 98.5051 163.711C98.7945 164.575 99.455 164.835 100.487 164.49L103.605 163.447L103.186 162.195L105.462 161.434L106.673 165.053L101.461 166.796C100.171 167.228 99.0706 167.242 98.1594 166.838C97.2634 166.429 96.6124 165.618 96.2063 164.404ZM100.351 176.792C99.9445 175.578 99.9788 174.546 100.454 173.695C100.943 172.84 101.833 172.196 103.123 171.765L104.033 171.46L104.825 173.827L103.733 174.193C102.701 174.538 102.33 175.143 102.619 176.008C102.761 176.432 102.989 176.711 103.303 176.842C103.637 176.983 104.085 176.96 104.646 176.772C105.314 176.549 105.847 176.201 106.246 175.73C106.661 175.254 107.088 174.487 107.527 173.429C108.092 172.093 108.67 171.098 109.261 170.445C109.868 169.787 110.634 169.302 111.559 168.993C112.819 168.572 113.896 168.565 114.792 168.974C115.704 169.378 116.362 170.187 116.768 171.401C117.169 172.599 117.122 173.619 116.628 174.459C116.153 175.31 115.271 175.951 113.981 176.382L113.321 176.603L112.529 174.236L113.348 173.962C113.895 173.779 114.254 173.541 114.425 173.247C114.612 172.949 114.637 172.594 114.5 172.185C114.221 171.35 113.573 171.103 112.556 171.443C111.98 171.636 111.492 171.968 111.093 172.439C110.698 172.925 110.282 173.697 109.843 174.755C109.283 176.107 108.697 177.104 108.085 177.747C107.474 178.391 106.667 178.88 105.666 179.215C104.361 179.651 103.25 179.66 102.334 179.241C101.423 178.837 100.762 178.021 100.351 176.792ZM119.524 180.393L120.757 184.08C121.173 185.324 121.152 186.369 120.692 187.214C120.233 188.06 119.358 188.698 118.068 189.13L116.498 189.655C115.208 190.087 114.125 190.103 113.25 189.704C112.374 189.305 111.728 188.484 111.312 187.24L110.916 186.056L104.429 188.226L103.591 185.723L119.524 180.393ZM113.588 186.478C113.725 186.888 113.94 187.153 114.234 187.275C114.532 187.411 114.955 187.388 115.501 187.205L117.39 186.573C117.936 186.39 118.288 186.154 118.444 185.866C118.606 185.593 118.618 185.251 118.481 184.841L118.085 183.658L113.192 185.295L113.588 186.478ZM108.781 201.991C108.37 200.762 108.404 199.704 108.883 198.818C109.363 197.932 110.24 197.276 111.515 196.85L119.891 194.048C121.165 193.621 122.261 193.617 123.177 194.036C124.093 194.455 124.757 195.279 125.168 196.508C125.579 197.737 125.545 198.795 125.065 199.681C124.585 200.567 123.708 201.223 122.434 201.649L114.058 204.451C112.783 204.878 111.688 204.882 110.772 204.463C109.856 204.044 109.192 203.22 108.781 201.991ZM111.057 201.229C111.346 202.094 112.014 202.351 113.061 202.001L121.756 199.092C122.802 198.742 123.181 198.135 122.892 197.27C122.603 196.405 121.934 196.148 120.888 196.498L112.193 199.406C111.146 199.757 110.767 200.364 111.057 201.229ZM128.047 205.872L129.289 209.582C129.72 210.872 129.731 211.914 129.322 212.709C128.928 213.498 128.109 214.101 126.865 214.518L125.887 214.845C124.233 215.398 123.003 215.202 122.197 214.257L122.152 214.272C122.173 214.94 121.943 215.489 121.463 215.92C120.988 216.366 120.28 216.746 119.339 217.061L116.54 217.997C116.085 218.15 115.718 218.289 115.44 218.416C115.177 218.538 114.929 218.705 114.697 218.918L113.844 216.368C114.071 216.191 114.294 216.049 114.511 215.943C114.729 215.836 115.133 215.684 115.725 215.486L118.638 214.511C119.367 214.268 119.834 213.976 120.041 213.637C120.254 213.313 120.263 212.863 120.07 212.286L119.781 211.421L112.953 213.706L112.115 211.202L128.047 205.872ZM122.362 211.57C122.529 212.071 122.782 212.4 123.122 212.556C123.466 212.728 123.941 212.712 124.548 212.509L125.777 212.098C126.354 211.905 126.736 211.659 126.923 211.36C127.115 211.077 127.137 210.715 126.99 210.275L126.609 209.137L122.057 210.66L122.362 211.57ZM130.751 221.519L129.876 218.902L132.152 218.14L134.741 225.879L132.465 226.64L131.589 224.023L117.933 228.591L117.095 226.088L130.751 221.519ZM121.344 239.545C120.938 238.331 120.972 237.299 121.447 236.449C121.937 235.593 122.827 234.949 124.117 234.518L125.027 234.213L125.819 236.58L124.726 236.946C123.695 237.291 123.323 237.896 123.613 238.761C123.755 239.186 123.983 239.464 124.297 239.595C124.631 239.736 125.078 239.713 125.64 239.525C126.308 239.302 126.841 238.955 127.24 238.484C127.654 238.008 128.081 237.241 128.52 236.183C129.085 234.846 129.664 233.852 130.255 233.198C130.861 232.54 131.627 232.056 132.553 231.746C133.812 231.325 134.89 231.319 135.786 231.727C136.697 232.131 137.356 232.94 137.762 234.154C138.163 235.353 138.116 236.372 137.621 237.213C137.146 238.063 136.264 238.704 134.975 239.136L134.314 239.357L133.523 236.989L134.342 236.715C134.888 236.533 135.247 236.294 135.419 236.001C135.606 235.702 135.631 235.348 135.494 234.938C135.214 234.104 134.567 233.856 133.55 234.197C132.973 234.389 132.485 234.721 132.086 235.192C131.692 235.678 131.276 236.451 130.836 237.508C130.276 238.86 129.69 239.857 129.079 240.501C128.467 241.144 127.661 241.633 126.66 241.968C125.355 242.405 124.244 242.413 123.328 241.994C122.417 241.591 121.755 240.774 121.344 239.545ZM136.056 252.505L137.731 257.512L135.455 258.273L133.78 253.266L136.056 252.505ZM148.815 267.951L149.653 270.455L133.721 275.785L132.883 273.281L148.815 267.951ZM151.549 276.123L153.765 282.746L151.489 283.508L150.111 279.388L145.673 280.873L146.754 284.105L144.478 284.866L143.397 281.634L136.455 283.957L135.617 281.453L151.549 276.123ZM155.436 287.74L156.677 291.45C157.108 292.74 157.12 293.782 156.711 294.577C156.317 295.367 155.498 295.97 154.254 296.386L153.275 296.713C151.621 297.267 150.391 297.071 149.586 296.125L149.54 296.141C149.561 296.808 149.332 297.358 148.851 297.788C148.376 298.234 147.668 298.614 146.728 298.929L143.928 299.866C143.473 300.018 143.106 300.157 142.828 300.284C142.565 300.406 142.317 300.573 142.085 300.786L141.232 298.237C141.46 298.059 141.682 297.918 141.9 297.811C142.117 297.705 142.522 297.552 143.113 297.354L146.027 296.38C146.755 296.136 147.223 295.845 147.43 295.505C147.642 295.181 147.652 294.731 147.459 294.154L147.169 293.29L140.341 295.574L139.504 293.07L155.436 287.74ZM149.75 293.439C149.917 293.939 150.171 294.268 150.51 294.424C150.854 294.596 151.33 294.58 151.937 294.377L153.166 293.966C153.742 293.773 154.124 293.527 154.311 293.229C154.503 292.945 154.525 292.583 154.378 292.143L153.997 291.005L149.445 292.528L149.75 293.439ZM159.776 300.713L160.827 303.854L152.105 309.48L152.12 309.525L161.657 306.335L162.403 308.565L146.471 313.895L145.61 311.324L156.236 304.428L156.22 304.383L144.59 308.274L143.844 306.043L159.776 300.713ZM151.803 330.592C151.402 329.393 151.437 328.361 151.906 327.495C152.381 326.645 153.24 326.012 154.485 325.595L163.042 322.732C164.287 322.316 165.354 322.305 166.245 322.699C167.141 323.107 167.79 323.911 168.191 325.11C168.592 326.309 168.555 327.333 168.08 328.184C167.61 329.049 166.754 329.69 165.509 330.107L163.825 330.67L163.033 328.303L164.877 327.686C165.863 327.356 166.217 326.774 165.937 325.94C165.658 325.105 165.025 324.853 164.039 325.183L155.14 328.16C154.169 328.485 153.823 329.064 154.102 329.899C154.381 330.733 155.006 330.988 155.978 330.663L158.413 329.849L159.205 332.216L156.952 332.97C155.707 333.386 154.637 333.39 153.741 332.981C152.85 332.587 152.204 331.791 151.803 330.592ZM170.967 334.164L172.017 337.305L163.296 342.931L163.311 342.977L172.847 339.786L173.594 342.017L157.661 347.347L156.801 344.775L167.426 337.879L167.411 337.834L155.781 341.725L155.035 339.494L170.967 334.164ZM176.132 349.605L177.267 352.997L162.203 360.921L161.365 358.418L164.377 356.904L164.331 356.919L163.379 354.074L160.109 354.662L159.332 352.341L176.132 349.605ZM166.394 355.9L173.896 352.15L173.881 352.105L165.64 353.647L166.394 355.9ZM177.84 362.273L176.964 359.656L179.24 358.895L181.829 366.633L179.553 367.395L178.677 364.777L165.021 369.346L164.183 366.842L177.84 362.273ZM179.042 380.997L180.717 386.004L178.441 386.766L176.766 381.759L179.042 380.997ZM176.731 405.104C176.325 403.891 176.359 402.858 176.834 402.008C177.324 401.152 178.213 400.509 179.503 400.077L180.413 399.773L181.205 402.14L180.113 402.505C179.081 402.85 178.71 403.455 178.999 404.32C179.141 404.745 179.369 405.023 179.683 405.154C180.017 405.296 180.465 405.272 181.026 405.085C181.694 404.861 182.227 404.514 182.627 404.043C183.041 403.567 183.468 402.8 183.907 401.742C184.472 400.406 185.05 399.411 185.641 398.757C186.248 398.099 187.014 397.615 187.94 397.305C189.199 396.884 190.277 396.878 191.173 397.287C192.084 397.69 192.742 398.499 193.149 399.713C193.55 400.912 193.503 401.931 193.008 402.772C192.533 403.622 191.651 404.263 190.361 404.695L189.701 404.916L188.909 402.549L189.728 402.275C190.275 402.092 190.634 401.854 190.805 401.56C190.992 401.261 191.017 400.907 190.88 400.497C190.601 399.663 189.953 399.416 188.936 399.756C188.36 399.949 187.872 400.281 187.473 400.752C187.079 401.238 186.662 402.01 186.223 403.068C185.663 404.419 185.077 405.417 184.465 406.06C183.854 406.703 183.047 407.192 182.046 407.527C180.741 407.964 179.631 407.973 178.714 407.554C177.803 407.15 177.142 406.333 176.731 405.104ZM195.904 408.705L196.741 411.209L180.809 416.539L179.972 414.035L195.904 408.705ZM183.666 425.834C183.26 424.62 183.291 423.58 183.761 422.715C184.246 421.844 185.133 421.193 186.423 420.761L194.798 417.959C196.088 417.528 197.181 417.516 198.077 417.925C198.988 418.329 199.647 419.138 200.053 420.352C200.459 421.566 200.42 422.608 199.935 423.479C199.465 424.344 198.586 424.993 197.296 425.425L195.93 425.881L195.138 423.514L196.663 423.004C197.71 422.654 198.089 422.046 197.8 421.181C197.51 420.317 196.842 420.059 195.795 420.41L187.078 423.326C186.046 423.671 185.675 424.276 185.965 425.141C186.254 426.006 186.914 426.266 187.946 425.92L191.064 424.877L190.646 423.625L192.922 422.864L194.132 426.483L188.92 428.227C187.63 428.658 186.53 428.672 185.619 428.268C184.723 427.859 184.072 427.048 183.666 425.834ZM187.81 438.222C187.404 437.008 187.438 435.976 187.913 435.126C188.403 434.27 189.293 433.626 190.582 433.195L191.493 432.89L192.285 435.257L191.192 435.623C190.16 435.968 189.789 436.573 190.078 437.438C190.221 437.863 190.449 438.141 190.762 438.272C191.097 438.413 191.544 438.39 192.106 438.202C192.773 437.979 193.307 437.632 193.706 437.161C194.12 436.685 194.547 435.918 194.986 434.86C195.551 433.523 196.13 432.529 196.721 431.875C197.327 431.217 198.093 430.733 199.019 430.423C200.278 430.002 201.356 429.996 202.252 430.404C203.163 430.808 203.822 431.617 204.228 432.831C204.629 434.03 204.582 435.049 204.087 435.89C203.612 436.74 202.73 437.381 201.44 437.813L200.78 438.033L199.988 435.666L200.808 435.392C201.354 435.21 201.713 434.971 201.885 434.678C202.072 434.379 202.096 434.025 201.959 433.615C201.68 432.781 201.032 432.533 200.016 432.873C199.439 433.066 198.951 433.398 198.552 433.869C198.158 434.355 197.741 435.127 197.302 436.185C196.742 437.537 196.156 438.534 195.545 439.178C194.933 439.821 194.127 440.31 193.125 440.645C191.82 441.082 190.71 441.09 189.794 440.671C188.882 440.268 188.221 439.451 187.81 438.222ZM206.983 441.823L208.216 445.51C208.633 446.754 208.611 447.799 208.152 448.645C207.692 449.49 206.817 450.129 205.528 450.56L203.957 451.086C202.668 451.517 201.585 451.533 200.709 451.135C199.833 450.736 199.187 449.914 198.771 448.67L198.375 447.487L191.888 449.657L191.051 447.153L206.983 441.823ZM201.047 447.909C201.184 448.318 201.399 448.584 201.693 448.705C201.992 448.841 202.414 448.818 202.96 448.635L204.849 448.003C205.396 447.82 205.747 447.585 205.904 447.296C206.065 447.023 206.078 446.681 205.94 446.272L205.545 445.088L200.651 446.725L201.047 447.909ZM196.24 463.421C195.829 462.192 195.863 461.134 196.343 460.248C196.823 459.362 197.7 458.706 198.974 458.28L207.35 455.478C208.625 455.051 209.72 455.048 210.636 455.467C211.553 455.886 212.216 456.71 212.627 457.939C213.039 459.168 213.004 460.225 212.525 461.111C212.045 461.997 211.168 462.653 209.893 463.08L201.517 465.882C200.243 466.308 199.147 466.312 198.231 465.893C197.315 465.474 196.651 464.65 196.24 463.421ZM198.516 462.66C198.805 463.524 199.474 463.782 200.521 463.431L209.215 460.523C210.262 460.173 210.641 459.565 210.351 458.7C210.062 457.835 209.394 457.578 208.347 457.928L199.653 460.837C198.606 461.187 198.227 461.795 198.516 462.66ZM215.507 467.302L216.748 471.012C217.179 472.302 217.191 473.344 216.782 474.139C216.388 474.929 215.569 475.532 214.325 475.948L213.346 476.275C211.692 476.829 210.462 476.633 209.657 475.687L209.611 475.703C209.632 476.37 209.403 476.92 208.923 477.35C208.447 477.796 207.739 478.176 206.799 478.491L203.999 479.428C203.544 479.58 203.177 479.719 202.899 479.846C202.636 479.968 202.388 480.135 202.156 480.348L201.303 477.799C201.531 477.621 201.753 477.48 201.971 477.373C202.188 477.267 202.593 477.114 203.184 476.916L206.098 475.942C206.826 475.698 207.294 475.407 207.501 475.067C207.713 474.743 207.723 474.293 207.53 473.716L207.24 472.852L200.412 475.136L199.575 472.632L215.507 467.302ZM209.821 473.001C209.988 473.501 210.242 473.83 210.581 473.986C210.925 474.158 211.401 474.142 212.008 473.939L213.237 473.528C213.813 473.335 214.195 473.089 214.382 472.791C214.574 472.507 214.596 472.145 214.449 471.705L214.068 470.567L209.516 472.09L209.821 473.001ZM218.211 482.95L217.335 480.332L219.611 479.571L222.2 487.309L219.924 488.071L219.048 485.453L205.392 490.022L204.555 487.518L218.211 482.95ZM208.804 500.976C208.398 499.762 208.432 498.729 208.907 497.879C209.396 497.023 210.286 496.38 211.576 495.948L212.486 495.644L213.278 498.011L212.186 498.376C211.154 498.721 210.783 499.326 211.072 500.191C211.214 500.616 211.442 500.894 211.756 501.025C212.09 501.167 212.538 501.143 213.099 500.956C213.767 500.732 214.3 500.385 214.7 499.914C215.114 499.438 215.541 498.671 215.98 497.613C216.545 496.277 217.123 495.282 217.714 494.629C218.321 493.97 219.087 493.486 220.012 493.177C221.272 492.755 222.35 492.749 223.246 493.158C224.157 493.562 224.815 494.37 225.221 495.584C225.622 496.783 225.575 497.803 225.081 498.643C224.606 499.494 223.724 500.135 222.434 500.566L221.774 500.787L220.982 498.42L221.801 498.146C222.348 497.963 222.707 497.725 222.878 497.431C223.065 497.132 223.09 496.778 222.953 496.368C222.674 495.534 222.026 495.287 221.009 495.627C220.433 495.82 219.945 496.152 219.546 496.623C219.152 497.109 218.735 497.881 218.296 498.939C217.736 500.29 217.15 501.288 216.538 501.931C215.927 502.574 215.12 503.063 214.119 503.398C212.814 503.835 211.703 503.844 210.787 503.425C209.876 503.021 209.215 502.205 208.804 500.976ZM223.515 513.935L225.19 518.942L222.914 519.704L221.239 514.696L223.515 513.935ZM236.275 529.381L237.112 531.885L221.18 537.215L220.343 534.711L236.275 529.381ZM239.009 537.553L241.225 544.177L238.949 544.938L237.57 540.818L233.132 542.303L234.213 545.535L231.937 546.297L230.856 543.065L223.914 545.387L223.077 542.883L239.009 537.553ZM242.895 549.171L244.136 552.88C244.568 554.17 244.579 555.213 244.17 556.007C243.776 556.797 242.957 557.4 241.713 557.816L240.734 558.144C239.08 558.697 237.851 558.501 237.045 557.556L237 557.571C237.021 558.239 236.791 558.788 236.311 559.219C235.836 559.664 235.128 560.045 234.187 560.359L231.388 561.296C230.932 561.448 230.566 561.588 230.288 561.715C230.025 561.836 229.777 562.003 229.544 562.216L228.692 559.667C228.919 559.49 229.142 559.348 229.359 559.241C229.576 559.135 229.981 558.983 230.573 558.785L233.486 557.81C234.214 557.566 234.682 557.275 234.889 556.936C235.101 556.612 235.111 556.161 234.918 555.585L234.629 554.72L227.801 557.004L226.963 554.501L242.895 549.171ZM237.209 554.869C237.377 555.37 237.63 555.698 237.969 555.855C238.314 556.026 238.789 556.011 239.396 555.808L240.625 555.396C241.202 555.204 241.583 554.958 241.77 554.659C241.962 554.375 241.985 554.014 241.837 553.574L241.457 552.436L236.905 553.958L237.209 554.869ZM247.235 562.144L248.286 565.284L239.564 570.91L239.579 570.956L249.116 567.765L249.862 569.996L233.93 575.326L233.07 572.754L243.695 565.859L243.68 565.813L232.049 569.704L231.303 567.474L247.235 562.144ZM239.263 592.022C238.862 590.824 238.896 589.792 239.366 588.926C239.84 588.075 240.7 587.442 241.944 587.026L250.502 584.163C251.746 583.746 252.814 583.735 253.704 584.129C254.6 584.538 255.249 585.341 255.65 586.54C256.051 587.739 256.014 588.764 255.54 589.614C255.07 590.48 254.213 591.121 252.969 591.537L251.285 592.1L250.493 589.733L252.336 589.117C253.322 588.787 253.676 588.204 253.397 587.37C253.118 586.535 252.485 586.283 251.499 586.613L242.599 589.59C241.628 589.915 241.282 590.495 241.562 591.329C241.841 592.164 242.466 592.419 243.437 592.094L245.872 591.279L246.664 593.646L244.411 594.4C243.167 594.816 242.097 594.82 241.201 594.411C240.31 594.017 239.664 593.221 239.263 592.022ZM258.426 595.595L259.477 598.736L250.755 604.361L250.77 604.407L260.307 601.216L261.053 603.447L245.121 608.777L244.26 606.205L254.886 599.31L254.871 599.264L243.24 603.155L242.494 600.925L258.426 595.595ZM263.592 611.036L264.726 614.427L249.662 622.352L248.825 619.848L251.836 618.334L251.79 618.35L250.839 615.505L247.568 616.093L246.792 613.771L263.592 611.036ZM253.854 617.33L261.356 613.581L261.34 613.535L253.1 615.077L253.854 617.33ZM265.299 623.704L264.423 621.086L266.699 620.325L269.288 628.063L267.012 628.825L266.137 626.207L252.48 630.776L251.643 628.272L265.299 623.704ZM266.501 642.428L268.177 647.435L265.9 648.196L264.225 643.189L266.501 642.428ZM264.19 666.535C263.784 665.321 263.818 664.289 264.293 663.438C264.783 662.582 265.673 661.939 266.962 661.507L267.873 661.203L268.665 663.57L267.572 663.935C266.54 664.281 266.169 664.886 266.459 665.751C266.601 666.175 266.829 666.453 267.143 666.585C267.477 666.726 267.924 666.703 268.486 666.515C269.153 666.292 269.687 665.944 270.086 665.473C270.5 664.997 270.927 664.23 271.366 663.172C271.931 661.836 272.51 660.841 273.101 660.188C273.707 659.529 274.473 659.045 275.399 658.736C276.658 658.314 277.736 658.308 278.632 658.717C279.543 659.121 280.202 659.93 280.608 661.144C281.009 662.342 280.962 663.362 280.467 664.202C279.992 665.053 279.11 665.694 277.82 666.125L277.16 666.346L276.369 663.979L277.188 663.705C277.734 663.522 278.093 663.284 278.265 662.99C278.452 662.692 278.477 662.337 278.34 661.928C278.06 661.093 277.412 660.846 276.396 661.186C275.819 661.379 275.331 661.711 274.932 662.182C274.538 662.668 274.121 663.44 273.682 664.498C273.122 665.85 272.536 666.847 271.925 667.49C271.313 668.133 270.507 668.623 269.505 668.958C268.201 669.394 267.09 669.403 266.174 668.984C265.263 668.58 264.601 667.764 264.19 666.535ZM283.363 670.136L284.201 672.639L268.269 677.969L267.431 675.466L283.363 670.136ZM271.125 687.264C270.719 686.05 270.751 685.011 271.22 684.145C271.705 683.274 272.592 682.623 273.882 682.192L282.258 679.39C283.548 678.958 284.641 678.947 285.537 679.356C286.448 679.759 287.106 680.568 287.512 681.782C287.919 682.996 287.879 684.038 287.394 684.909C286.925 685.775 286.045 686.423 284.755 686.855L283.39 687.312L282.598 684.945L284.123 684.435C285.17 684.084 285.549 683.477 285.259 682.612C284.97 681.747 284.302 681.49 283.255 681.84L274.538 684.756C273.506 685.101 273.135 685.706 273.424 686.571C273.713 687.436 274.374 687.696 275.406 687.351L278.524 686.308L278.105 685.056L280.381 684.294L281.592 687.913L276.38 689.657C275.09 690.088 273.989 690.102 273.078 689.698C272.182 689.29 271.531 688.478 271.125 687.264ZM275.269 699.652C274.863 698.439 274.898 697.406 275.372 696.556C275.862 695.7 276.752 695.057 278.042 694.625L278.952 694.321L279.744 696.688L278.652 697.053C277.62 697.398 277.249 698.003 277.538 698.868C277.68 699.293 277.908 699.571 278.222 699.702C278.556 699.844 279.004 699.82 279.565 699.633C280.233 699.409 280.766 699.062 281.165 698.591C281.58 698.115 282.006 697.348 282.445 696.29C283.011 694.954 283.589 693.959 284.18 693.306C284.787 692.647 285.553 692.163 286.478 691.854C287.738 691.432 288.815 691.426 289.711 691.835C290.623 692.239 291.281 693.047 291.687 694.261C292.088 695.46 292.041 696.48 291.546 697.32C291.072 698.171 290.189 698.812 288.9 699.243L288.24 699.464L287.448 697.097L288.267 696.823C288.813 696.64 289.172 696.402 289.344 696.108C289.531 695.809 289.556 695.455 289.419 695.045C289.14 694.211 288.492 693.964 287.475 694.304C286.899 694.497 286.411 694.829 286.011 695.3C285.617 695.786 285.201 696.558 284.762 697.616C284.202 698.967 283.616 699.965 283.004 700.608C282.393 701.251 281.586 701.74 280.585 702.075C279.28 702.512 278.169 702.521 277.253 702.102C276.342 701.698 275.681 700.882 275.269 699.652ZM294.442 703.253L295.676 706.941C296.092 708.185 296.071 709.23 295.611 710.075C295.152 710.921 294.277 711.559 292.987 711.99L291.417 712.516C290.127 712.947 289.044 712.964 288.168 712.565C287.293 712.166 286.647 711.345 286.23 710.1L285.835 708.917L279.348 711.087L278.51 708.583L294.442 703.253ZM288.506 709.339C288.644 709.749 288.859 710.014 289.152 710.135C289.451 710.272 289.874 710.248 290.42 710.066L292.309 709.434C292.855 709.251 293.207 709.015 293.363 708.727C293.525 708.453 293.537 708.112 293.4 707.702L293.004 706.518L288.111 708.156L288.506 709.339ZM283.7 724.851C283.288 723.622 283.323 722.565 283.802 721.679C284.282 720.793 285.159 720.137 286.434 719.71L294.809 716.908C296.084 716.482 297.179 716.478 298.096 716.897C299.012 717.316 299.676 718.14 300.087 719.369C300.498 720.598 300.464 721.656 299.984 722.542C299.504 723.428 298.627 724.084 297.353 724.51L288.977 727.312C287.702 727.739 286.607 727.742 285.691 727.323C284.774 726.904 284.111 726.08 283.7 724.851ZM285.976 724.09C286.265 724.955 286.933 725.212 287.98 724.862L296.674 721.953C297.721 721.603 298.1 720.995 297.811 720.13C297.521 719.266 296.853 719.008 295.806 719.359L287.112 722.267C286.065 722.617 285.686 723.225 285.976 724.09ZM302.966 728.733L304.207 732.443C304.639 733.732 304.65 734.775 304.241 735.569C303.847 736.359 303.028 736.962 301.784 737.378L300.805 737.706C299.152 738.259 297.922 738.063 297.116 737.118L297.071 737.133C297.092 737.801 296.862 738.35 296.382 738.781C295.907 739.226 295.199 739.607 294.258 739.921L291.459 740.858C291.003 741.01 290.637 741.15 290.359 741.277C290.096 741.398 289.848 741.565 289.615 741.778L288.763 739.229C288.99 739.052 289.213 738.91 289.43 738.803C289.647 738.697 290.052 738.545 290.644 738.347L293.557 737.372C294.285 737.128 294.753 736.837 294.96 736.498C295.172 736.174 295.182 735.723 294.989 735.147L294.7 734.282L287.872 736.566L287.034 734.063L302.966 728.733ZM297.28 734.431C297.448 734.932 297.701 735.26 298.04 735.417C298.385 735.588 298.86 735.573 299.467 735.37L300.696 734.958C301.273 734.766 301.655 734.52 301.841 734.221C302.033 733.937 302.056 733.576 301.909 733.136L301.528 731.998L296.976 733.52L297.28 734.431ZM305.67 744.38L304.795 741.763L307.071 741.001L309.659 748.74L307.383 749.501L306.508 746.884L292.852 751.452L292.014 748.948L305.67 744.38ZM296.263 762.406C295.857 761.192 295.891 760.16 296.366 759.309C296.856 758.454 297.746 757.81 299.035 757.379L299.946 757.074L300.738 759.441L299.645 759.807C298.613 760.152 298.242 760.757 298.532 761.622C298.674 762.047 298.902 762.325 299.215 762.456C299.55 762.597 299.997 762.574 300.559 762.386C301.226 762.163 301.76 761.815 302.159 761.344C302.573 760.868 303 760.101 303.439 759.043C304.004 757.707 304.583 756.712 305.174 756.059C305.78 755.401 306.546 754.917 307.472 754.607C308.731 754.186 309.809 754.179 310.705 754.588C311.616 754.992 312.275 755.801 312.681 757.015C313.082 758.213 313.035 759.233 312.54 760.073C312.065 760.924 311.183 761.565 309.893 761.996L309.233 762.217L308.441 759.85L309.261 759.576C309.807 759.393 310.166 759.155 310.338 758.861C310.525 758.563 310.55 758.209 310.412 757.799C310.133 756.964 309.485 756.717 308.469 757.057C307.892 757.25 307.404 757.582 307.005 758.053C306.611 758.539 306.194 759.311 305.755 760.369C305.195 761.721 304.609 762.718 303.998 763.361C303.386 764.005 302.58 764.494 301.578 764.829C300.273 765.265 299.163 765.274 298.247 764.855C297.335 764.451 296.674 763.635 296.263 762.406ZM310.975 775.365L312.65 780.373L310.374 781.134L308.699 776.127L310.975 775.365ZM323.734 790.812L324.572 793.315L308.64 798.645L307.802 796.142L323.734 790.812ZM326.468 798.984L328.684 805.607L326.408 806.368L325.03 802.249L320.592 803.734L321.673 806.966L319.397 807.727L318.316 804.495L311.374 806.817L310.536 804.314L326.468 798.984ZM330.355 810.601L331.596 814.311C332.027 815.601 332.038 816.643 331.63 817.438C331.236 818.227 330.417 818.83 329.173 819.247L328.194 819.574C326.54 820.127 325.31 819.931 324.505 818.986L324.459 819.001C324.48 819.669 324.251 820.218 323.77 820.649C323.295 821.095 322.587 821.475 321.647 821.79L318.847 822.726C318.392 822.879 318.025 823.018 317.747 823.145C317.484 823.267 317.236 823.434 317.004 823.647L316.151 821.097C316.378 820.92 316.601 820.778 316.818 820.672C317.036 820.565 317.44 820.413 318.032 820.215L320.946 819.24C321.674 818.997 322.142 818.705 322.349 818.366C322.561 818.042 322.57 817.592 322.378 817.015L322.088 816.15L315.26 818.434L314.423 815.931L330.355 810.601ZM324.669 816.299C324.836 816.8 325.09 817.129 325.429 817.285C325.773 817.457 326.249 817.441 326.856 817.238L328.085 816.827C328.661 816.634 329.043 816.388 329.23 816.089C329.422 815.806 329.444 815.444 329.297 815.004L328.916 813.866L324.364 815.389L324.669 816.299ZM334.695 823.574L335.745 826.715L327.024 832.34L327.039 832.386L336.575 829.196L337.322 831.426L321.389 836.756L320.529 834.184L331.154 827.289L331.139 827.243L319.509 831.134L318.763 828.904L334.695 823.574ZM326.722 853.453C326.321 852.254 326.355 851.222 326.825 850.356C327.3 849.506 328.159 848.872 329.403 848.456L337.961 845.593C339.205 845.177 340.273 845.166 341.164 845.559C342.06 845.968 342.708 846.772 343.109 847.971C343.51 849.169 343.474 850.194 342.999 851.044C342.529 851.91 341.672 852.551 340.428 852.967L338.744 853.531L337.952 851.164L339.796 850.547C340.782 850.217 341.135 849.635 340.856 848.8C340.577 847.966 339.944 847.713 338.958 848.043L330.059 851.021C329.088 851.345 328.742 851.925 329.021 852.76C329.3 853.594 329.925 853.849 330.896 853.524L333.332 852.709L334.124 855.076L331.87 855.83C330.626 856.247 329.556 856.25 328.66 855.841C327.769 855.448 327.123 854.651 326.722 853.453ZM345.885 857.025L346.936 860.166L338.214 865.792L338.23 865.837L347.766 862.647L348.512 864.877L332.58 870.207L331.72 867.635L342.345 860.74L342.33 860.695L330.7 864.586L329.953 862.355L345.885 857.025ZM351.051 872.466L352.186 875.857L337.122 883.782L336.284 881.278L339.295 879.765L339.25 879.78L338.298 876.935L335.028 877.523L334.251 875.201L351.051 872.466ZM341.313 878.761L348.815 875.011L348.8 874.965L340.559 876.508L341.313 878.761ZM352.758 885.134L351.883 882.517L354.159 881.755L356.748 889.494L354.472 890.255L353.596 887.638L339.94 892.206L339.102 889.703L352.758 885.134ZM353.961 903.858L355.636 908.865L353.36 909.627L351.685 904.619L353.961 903.858ZM351.65 927.965C351.244 926.751 351.278 925.719 351.753 924.868C352.242 924.013 353.132 923.369 354.422 922.938L355.332 922.633L356.124 925L355.032 925.366C354 925.711 353.629 926.316 353.918 927.181C354.06 927.606 354.288 927.884 354.602 928.015C354.936 928.156 355.384 928.133 355.945 927.945C356.613 927.722 357.146 927.375 357.545 926.904C357.96 926.428 358.387 925.661 358.826 924.603C359.391 923.266 359.969 922.271 360.56 921.618C361.167 920.96 361.933 920.476 362.858 920.166C364.118 919.745 365.195 919.739 366.091 920.147C367.003 920.551 367.661 921.36 368.067 922.574C368.468 923.773 368.421 924.792 367.927 925.633C367.452 926.483 366.57 927.124 365.28 927.556L364.62 927.776L363.828 925.409L364.647 925.135C365.194 924.952 365.553 924.714 365.724 924.421C365.911 924.122 365.936 923.768 365.799 923.358C365.52 922.524 364.872 922.276 363.855 922.616C363.279 922.809 362.791 923.141 362.392 923.612C361.997 924.098 361.581 924.87 361.142 925.928C360.582 927.28 359.996 928.277 359.384 928.921C358.773 929.564 357.966 930.053 356.965 930.388C355.66 930.824 354.549 930.833 353.633 930.414C352.722 930.011 352.061 929.194 351.65 927.965ZM370.823 931.566L371.66 934.07L355.728 939.4L354.89 936.896L370.823 931.566ZM358.585 948.695C358.178 947.481 358.21 946.441 358.68 945.575C359.165 944.705 360.052 944.053 361.342 943.622L369.717 940.82C371.007 940.388 372.1 940.377 372.996 940.786C373.907 941.19 374.566 941.999 374.972 943.212C375.378 944.426 375.339 945.469 374.854 946.339C374.384 947.205 373.505 947.854 372.215 948.285L370.849 948.742L370.057 946.375L371.582 945.865C372.629 945.515 373.008 944.907 372.719 944.042C372.429 943.177 371.761 942.92 370.714 943.27L361.997 946.186C360.965 946.532 360.594 947.137 360.883 948.002C361.173 948.866 361.833 949.126 362.865 948.781L365.983 947.738L365.564 946.486L367.84 945.725L369.051 949.344L363.839 951.087C362.549 951.519 361.449 951.533 360.538 951.129C359.642 950.72 358.991 949.909 358.585 948.695ZM362.729 961.083C362.323 959.869 362.357 958.837 362.832 957.986C363.322 957.131 364.211 956.487 365.501 956.056L366.412 955.751L367.203 958.118L366.111 958.484C365.079 958.829 364.708 959.434 364.997 960.299C365.139 960.723 365.367 961.002 365.681 961.133C366.015 961.274 366.463 961.251 367.025 961.063C367.692 960.84 368.226 960.492 368.625 960.021C369.039 959.545 369.466 958.778 369.905 957.72C370.47 956.384 371.048 955.389 371.64 954.736C372.246 954.078 373.012 953.593 373.938 953.284C375.197 952.863 376.275 952.856 377.171 953.265C378.082 953.669 378.741 954.478 379.147 955.692C379.548 956.89 379.501 957.91 379.006 958.75C378.531 959.601 377.649 960.242 376.359 960.673L375.699 960.894L374.907 958.527L375.727 958.253C376.273 958.07 376.632 957.832 376.804 957.538C376.99 957.24 377.015 956.885 376.878 956.476C376.599 955.641 375.951 955.394 374.935 955.734C374.358 955.927 373.87 956.259 373.471 956.73C373.077 957.216 372.66 957.988 372.221 959.046C371.661 960.398 371.075 961.395 370.464 962.038C369.852 962.682 369.046 963.171 368.044 963.506C366.739 963.942 365.629 963.951 364.712 963.532C363.801 963.128 363.14 962.312 362.729 961.083ZM381.902 964.684L383.135 968.371C383.552 969.615 383.53 970.66 383.07 971.505C382.611 972.351 381.736 972.989 380.447 973.421L378.876 973.946C377.586 974.378 376.504 974.394 375.628 973.995C374.752 973.597 374.106 972.775 373.69 971.531L373.294 970.347L366.807 972.517L365.97 970.014L381.902 964.684ZM375.966 970.769C376.103 971.179 376.318 971.444 376.612 971.566C376.911 971.702 377.333 971.679 377.879 971.496L379.768 970.864C380.315 970.681 380.666 970.446 380.822 970.157C380.984 969.884 380.996 969.542 380.859 969.132L380.463 967.949L375.57 969.586L375.966 970.769ZM371.159 986.282C370.748 985.053 370.782 983.995 371.262 983.109C371.741 982.223 372.619 981.567 373.893 981.141L382.269 978.339C383.543 977.912 384.639 977.908 385.555 978.327C386.471 978.746 387.135 979.57 387.546 980.799C387.957 982.028 387.923 983.086 387.443 983.972C386.964 984.858 386.087 985.514 384.812 985.94L376.436 988.742C375.162 989.169 374.066 989.173 373.15 988.754C372.234 988.335 371.57 987.511 371.159 986.282ZM373.435 985.52C373.724 986.385 374.392 986.642 375.439 986.292L384.134 983.384C385.181 983.033 385.56 982.426 385.27 981.561C384.981 980.696 384.313 980.439 383.266 980.789L374.571 983.697C373.524 984.048 373.146 984.655 373.435 985.52ZM390.426 990.163L391.667 993.873C392.098 995.163 392.11 996.205 391.701 997C391.307 997.789 390.488 998.392 389.244 998.809L388.265 999.136C386.611 999.689 385.381 999.493 384.576 998.548L384.53 998.563C384.551 999.231 384.322 999.78 383.841 1000.21C383.366 1000.66 382.658 1001.04 381.718 1001.35L378.918 1002.29C378.463 1002.44 378.096 1002.58 377.818 1002.71C377.555 1002.83 377.307 1003 377.075 1003.21L376.222 1000.66C376.45 1000.48 376.672 1000.34 376.889 1000.23C377.107 1000.13 377.511 999.975 378.103 999.777L381.017 998.802C381.745 998.559 382.213 998.267 382.42 997.928C382.632 997.604 382.641 997.154 382.449 996.577L382.159 995.712L375.331 997.997L374.494 995.493L390.426 990.163ZM384.74 995.861C384.907 996.362 385.161 996.691 385.5 996.847C385.844 997.019 386.32 997.003 386.927 996.8L388.156 996.389C388.732 996.196 389.114 995.95 389.301 995.651C389.493 995.368 389.515 995.006 389.368 994.566L388.987 993.428L384.435 994.951L384.74 995.861ZM393.13 1005.81L392.254 1003.19L394.53 1002.43L397.119 1010.17L394.843 1010.93L393.967 1008.31L380.311 1012.88L379.474 1010.38L393.13 1005.81ZM383.723 1023.84C383.316 1022.62 383.351 1021.59 383.825 1020.74C384.315 1019.88 385.205 1019.24 386.495 1018.81L387.405 1018.5L388.197 1020.87L387.105 1021.24C386.073 1021.58 385.702 1022.19 385.991 1023.05C386.133 1023.48 386.361 1023.75 386.675 1023.89C387.009 1024.03 387.457 1024 388.018 1023.82C388.686 1023.59 389.219 1023.25 389.618 1022.77C390.033 1022.3 390.459 1021.53 390.899 1020.47C391.464 1019.14 392.042 1018.14 392.633 1017.49C393.24 1016.83 394.006 1016.35 394.931 1016.04C396.191 1015.62 397.268 1015.61 398.164 1016.02C399.076 1016.42 399.734 1017.23 400.14 1018.44C400.541 1019.64 400.494 1020.66 399.999 1021.5C399.525 1022.35 398.643 1023 397.353 1023.43L396.693 1023.65L395.901 1021.28L396.72 1021.01C397.266 1020.82 397.625 1020.59 397.797 1020.29C397.984 1019.99 398.009 1019.64 397.872 1019.23C397.593 1018.39 396.945 1018.15 395.928 1018.49C395.352 1018.68 394.864 1019.01 394.465 1019.48C394.07 1019.97 393.654 1020.74 393.215 1021.8C392.655 1023.15 392.069 1024.15 391.457 1024.79C390.846 1025.43 390.039 1025.92 389.038 1026.26C387.733 1026.7 386.622 1026.7 385.706 1026.29C384.795 1025.88 384.134 1025.07 383.723 1023.84ZM398.434 1036.8L400.109 1041.8L397.833 1042.56L396.158 1037.56L398.434 1036.8ZM411.194 1052.24L412.031 1054.75L396.099 1060.08L395.262 1057.57L411.194 1052.24ZM413.928 1060.41L416.143 1067.04L413.867 1067.8L412.489 1063.68L408.051 1065.16L409.132 1068.4L406.856 1069.16L405.775 1065.93L398.833 1068.25L397.996 1065.74L413.928 1060.41ZM417.814 1072.03L419.055 1075.74C419.487 1077.03 419.498 1078.07 419.089 1078.87C418.695 1079.66 417.876 1080.26 416.632 1080.68L415.653 1081C413.999 1081.56 412.77 1081.36 411.964 1080.42L411.919 1080.43C411.94 1081.1 411.71 1081.65 411.23 1082.08C410.755 1082.53 410.047 1082.91 409.106 1083.22L406.306 1084.16C405.851 1084.31 405.485 1084.45 405.206 1084.58C404.943 1084.7 404.696 1084.86 404.463 1085.08L403.61 1082.53C403.838 1082.35 404.06 1082.21 404.278 1082.1C404.495 1082 404.9 1081.84 405.492 1081.65L408.405 1080.67C409.133 1080.43 409.601 1080.14 409.808 1079.8C410.02 1079.47 410.03 1079.02 409.837 1078.45L409.548 1077.58L402.72 1079.86L401.882 1077.36L417.814 1072.03ZM412.128 1077.73C412.296 1078.23 412.549 1078.56 412.888 1078.72C413.232 1078.89 413.708 1078.87 414.315 1078.67L415.544 1078.26C416.121 1078.06 416.502 1077.82 416.689 1077.52C416.881 1077.24 416.904 1076.87 416.756 1076.43L416.376 1075.3L411.824 1076.82L412.128 1077.73ZM422.154 1085L423.205 1088.15L414.483 1093.77L414.498 1093.82L424.035 1090.63L424.781 1092.86L408.849 1098.19L407.988 1095.61L418.614 1088.72L418.599 1088.67L406.968 1092.56L406.222 1090.33L422.154 1085ZM414.182 1114.88C413.781 1113.68 413.815 1112.65 414.284 1111.79C414.759 1110.94 415.619 1110.3 416.863 1109.89L425.421 1107.02C426.665 1106.61 427.732 1106.6 428.623 1106.99C429.519 1107.4 430.168 1108.2 430.569 1109.4C430.97 1110.6 430.933 1111.62 430.458 1112.47C429.989 1113.34 429.132 1113.98 427.888 1114.4L426.203 1114.96L425.411 1112.59L427.255 1111.98C428.241 1111.65 428.595 1111.07 428.316 1110.23C428.037 1109.4 427.404 1109.14 426.418 1109.47L417.518 1112.45C416.547 1112.78 416.201 1113.36 416.48 1114.19C416.76 1115.02 417.385 1115.28 418.356 1114.95L420.791 1114.14L421.583 1116.51L419.33 1117.26C418.086 1117.68 417.015 1117.68 416.119 1117.27C415.229 1116.88 414.583 1116.08 414.182 1114.88ZM433.345 1118.46L434.396 1121.6L425.674 1127.22L425.689 1127.27L435.226 1124.08L435.972 1126.31L420.04 1131.64L419.179 1129.07L429.805 1122.17L429.789 1122.12L418.159 1126.02L417.413 1123.79L433.345 1118.46ZM438.511 1133.9L439.645 1137.29L424.581 1145.21L423.743 1142.71L426.755 1141.2L426.709 1141.21L425.758 1138.37L422.487 1138.95L421.71 1136.63L438.511 1133.9ZM428.773 1140.19L436.274 1136.44L436.259 1136.4L428.019 1137.94L428.773 1140.19ZM440.218 1146.56L439.342 1143.95L441.618 1143.19L444.207 1150.92L441.931 1151.69L441.055 1149.07L427.399 1153.64L426.562 1151.13L440.218 1146.56ZM441.42 1165.29L443.095 1170.3L440.819 1171.06L439.144 1166.05L441.42 1165.29Z" fill="#92E6A7"/>
</svg>